# xmcd
#
# Track frame offsets: 
#        150
#        17704
#        34906
#        50784
#        67490
#        82356
#        97460
#        116923
#        131358
#        150675
#        168665
#
# Disc length: 2458 seconds
#
# Revision: 0
# Processed by: cddbd v1.5.2PL0 Copyright (c) Steve Scherf et al.
# Submitted via: ExactAudioCopy v0.99pb5
#
DISCID=ad09980b
DTITLE=Bavgate - The King Of Oakland CD 2
DYEAR=2007
DGENRE=Rap
TTITLE0=The Bay F. J-Diggs, San Quinn, Fat Bastard
TTITLE1=Act Like You Don't Know F. Fat Bastard
TTITLE2=Sticks and Stones F. Black Mafia
TTITLE3=Kings Of Gangstas F. Tuffy
TTITLE4=On My Mooma F. Pooh Sauce
TTITLE5=Sumthin We Do F. Pooh Suace
TTITLE6=Westide F. Bad Azz, Pooh Suace
TTITLE7=Sippin On Syrup F. Chop Da Hookman, Thugga
TTITLE8=My Block F.Chop Da Hookman, Rydah J. Klyde, Fat Bastard
TTITLE9=History F. Trill Real, Johnny Cash, Fendi Boyz
TTITLE10=Issues (Remix) F. Fat Bastard, Pooh Suace
EXTD=
EXTT0=
EXTT1=
EXTT2=
EXTT3=
EXTT4=
EXTT5=
EXTT6=
EXTT7=
EXTT8=
EXTT9=
EXTT10=
PLAYORDER=
